<?xml version="1.0" standalone="no"?>
<!DOCTYPE svg PUBLIC "-//W3C//DTD SVG 20010904//EN"
 "http://www.w3.org/TR/2001/REC-SVG-20010904/DTD/svg10.dtd">
<svg version="1.0" xmlns="http://www.w3.org/2000/svg"
 width="512.000000pt" height="512.000000pt" viewBox="0 0 512.000000 512.000000"
 preserveAspectRatio="xMidYMid meet">

<g transform="translate(0.000000,512.000000) scale(0.100000,-0.100000)"
fill="#000000" stroke="none">
<path d="M2427 5000 c-281 -51 -510 -220 -631 -465 -75 -150 -88 -221 -95
-502 l-6 -242 -245 -5 c-274 -5 -316 -12 -435 -74 -89 -47 -199 -155 -249
-243 -60 -109 -72 -183 -101 -599 -22 -315 -131 -1846 -151 -2105 -13 -169 55
-346 180 -471 80 -79 148 -121 251 -156 l70 -23 1545 0 1545 0 80 28 c44 15
108 45 142 67 181 119 297 351 279 560 -10 116 -112 1535 -146 2020 -16 239
-33 453 -36 475 -29 186 -155 361 -323 449 -115 60 -159 67 -431 72 l-245 5
-6 242 c-6 200 -11 257 -28 327 -94 372 -418 633 -801 645 -63 2 -137 0 -163
-5z m287 -256 c150 -39 314 -167 384 -301 60 -114 72 -188 72 -437 l0 -221
-611 0 -611 0 4 250 c4 239 5 253 30 317 73 192 224 335 413 389 79 23 236 24
319 3z m1253 -1238 c69 -32 148 -107 181 -173 30 -58 40 -131 62 -463 11 -162
50 -707 86 -1210 37 -516 63 -942 60 -977 -10 -120 -91 -234 -204 -290 l-57
-28 -1535 0 -1535 0 -57 28 c-113 56 -194 170 -204 290 -3 35 23 461 60 977
36 503 75 1048 86 1210 22 332 32 405 61 463 28 55 105 135 154 160 93 48 40
46 1450 44 l1330 -2 62 -29z"/>
</g>
</svg>
