<?xml version="1.0" standalone="no"?>
<!DOCTYPE svg PUBLIC "-//W3C//DTD SVG 20010904//EN"
 "http://www.w3.org/TR/2001/REC-SVG-20010904/DTD/svg10.dtd">
<svg version="1.0" xmlns="http://www.w3.org/2000/svg"
 width="512.000000pt" height="512.000000pt" viewBox="0 0 512.000000 512.000000"
 preserveAspectRatio="xMidYMid meet">

<g transform="translate(0.000000,512.000000) scale(0.100000,-0.100000)"
fill="#000000" stroke="none">
<path d="M2345 5024 c-520 -93 -930 -502 -1020 -1018 -19 -114 -19 -318 0
-432 31 -174 110 -364 216 -514 69 -99 206 -233 307 -301 45 -30 81 -57 82
-61 0 -3 -14 -9 -30 -13 -17 -4 -76 -24 -132 -46 -595 -232 -1070 -732 -1272
-1339 -87 -264 -121 -535 -114 -930 3 -181 5 -208 22 -233 41 -61 -118 -57
2156 -57 2274 0 2115 -4 2156 57 18 26 19 49 18 333 -1 388 -23 564 -104 810
-107 326 -269 596 -510 843 -176 183 -354 316 -572 427 -102 53 -316 140 -342
140 -30 0 -16 15 66 69 101 68 238 202 307 301 106 150 185 340 216 514 19
114 19 318 0 432 -91 519 -504 928 -1029 1019 -110 19 -313 18 -421 -1z m461
-269 c481 -122 807 -597 744 -1085 -54 -415 -352 -752 -756 -852 -106 -26
-331 -31 -429 -9 -552 122 -895 646 -780 1190 86 408 437 729 854 781 99 13
262 2 367 -25z m23 -2241 c433 -63 808 -256 1111 -570 208 -216 346 -443 440
-725 74 -219 100 -404 100 -699 l0 -190 -1921 0 -1921 0 5 247 c5 280 21 397
81 595 95 313 247 561 490 803 187 185 373 311 607 410 124 52 324 108 459
129 132 20 416 20 549 0z"/>
</g>
</svg>
