<?xml version="1.0" standalone="no"?>
<!DOCTYPE svg PUBLIC "-//W3C//DTD SVG 20010904//EN"
 "http://www.w3.org/TR/2001/REC-SVG-20010904/DTD/svg10.dtd">
<svg version="1.0" xmlns="http://www.w3.org/2000/svg"
 width="128.000000pt" height="128.000000pt" viewBox="0 0 128.000000 128.000000"
 preserveAspectRatio="xMidYMid meet">

<g transform="translate(0.000000,128.000000) scale(0.100000,-0.100000)"
fill="#000000" stroke="none">
<path d="M453 1145 c-173 -47 -295 -180 -325 -355 -47 -274 187 -531 462 -507
87 8 125 20 195 62 l59 36 151 -151 c82 -82 157 -150 166 -150 19 0 39 20 39
39 0 9 -68 84 -150 166 l-151 151 36 59 c42 70 54 108 62 195 10 120 -38 250
-128 340 -109 109 -271 154 -416 115z m253 -99 c77 -35 145 -103 181 -180 24
-52 28 -74 28 -146 0 -72 -4 -94 -28 -146 -36 -77 -104 -145 -182 -181 -86
-40 -204 -40 -290 0 -78 36 -146 104 -182 181 -24 52 -28 74 -28 146 0 72 4
94 28 145 86 183 293 263 473 181z"/>
</g>
</svg>
